HIERARCHY
ROOT Hips
{
     OFFSET 1.88212 96.90440 -13.34250
     CHANNELS 6 Xposition Yposition Zposition Zrotation Xrotation Yrotation
     JOINT Spine
     {
          OFFSET 0.00000 11.89050 0.00000
          CHANNELS 3 Zrotation Xrotation Yrotation
          JOINT Spine1
          {
               OFFSET -0.00000 25.65740 0.12766
               CHANNELS 3 Zrotation Xrotation Yrotation
               JOINT HEad
               {
                    OFFSET 0.00000 8.73416 0.01134
                    CHANNELS 3 Zrotation Xrotation Yrotation
                    End Site
                    {
                         OFFSET -0.29000 12.77420 2.51395
                    }
               }
               JOINT LeftShoulder1
               {
                    OFFSET 8.99000 -0.36225 -0.22000
                    CHANNELS 3 Zrotation Xrotation Yrotation
                    JOINT LeftArm
                    {
                         OFFSET 10.28270 -0.00338 0.32212
                         CHANNELS 3 Zrotation Xrotation Yrotation
                         JOINT LeftForeArm
                         {
                              OFFSET 32.76690 0.09914 -1.42434
                              CHANNELS 3 Zrotation Xrotation Yrotation
                              JOINT LeftHand
                              {
                                   OFFSET 27.56430 0.08536 1.02216
                                   CHANNELS 3 Zrotation Xrotation Yrotation
                                   End Site
                                   {
                                        OFFSET 16.74430 -0.60000 1.50291
                                   }
                              }
                         }
                    }
               }
               JOINT RightShoulder
               {
                    OFFSET -8.99000 -0.36225 -0.22000
                    CHANNELS 3 Zrotation Xrotation Yrotation
                    JOINT RightArm
                    {
                         OFFSET -10.28270 -0.00338 0.32212
                         CHANNELS 3 Zrotation Xrotation Yrotation
                         JOINT RightForeArm
                         {
                              OFFSET -32.89710 0.09914 -1.42434
                              CHANNELS 3 Zrotation Xrotation Yrotation
                              JOINT RightHand
                              {
                                   OFFSET -27.49210 0.08536 1.02216
                                   CHANNELS 3 Zrotation Xrotation Yrotation
                                   End Site
                                   {
                                        OFFSET -16.63120 -0.60000 1.50291
                                   }
                              }
                         }
                    }
               }
          }
     }
     JOINT LeftUpLeg
     {
          OFFSET 8.94580 -8.66707 0.10165
          CHANNELS 3 Zrotation Xrotation Yrotation
          JOINT LeftLeg
          {
               OFFSET 0.00000 -44.42270 1.37270
               CHANNELS 3 Zrotation Xrotation Yrotation
               JOINT LeftFoot
               {
                    OFFSET -0.25355 -42.09240 -1.46059
                    CHANNELS 3 Zrotation Xrotation Yrotation
                    JOINT LeftToes
                    {
                         OFFSET -0.04000 -4.41509 8.49910
                         CHANNELS 3 Zrotation Xrotation Yrotation
                         End Site
                         {
                              OFFSET 0.08000 -0.04745 9.77979
                         }
                    }
               }
          }
     }
     JOINT RightUpLeg
     {
          OFFSET -8.94580 -8.66707 0.10165
          CHANNELS 3 Zrotation Xrotation Yrotation
          JOINT RightLeg
          {
               OFFSET 0.00000 -44.42270 1.37270
               CHANNELS 3 Zrotation Xrotation Yrotation
               JOINT RightFoot
               {
                    OFFSET 0.25355 -42.09240 -1.46059
                    CHANNELS 3 Zrotation Xrotation Yrotation
                    JOINT RightToes
                    {
                         OFFSET 0.04000 -4.41509 8.49910
                         CHANNELS 3 Zrotation Xrotation Yrotation
                         End Site
                         {
                              OFFSET -0.08000 -0.13745 9.77979
                         }
                    }
               }
          }
     }
}
MOTION
Frames: 17
Frame Time: 0.01667
-855.16003 90.07590 -185.78271 2.98857 14.29678 165.83801 -7.98626 23.28674 -1.89719 -0.00284 0.00903 -0.00626 -1.24591 5.09298 6.29117 -0.34738 8.69366 -0.96022 -91.04454 -43.16361 -77.77158 -15.58260 35.21972 -86.51467 17.76544 7.62853 -11.70311 20.50411 8.60999 -3.66437 80.70143 -1.35523 69.20554 8.17070 30.31975 109.97331 17.52934 11.61335 4.32694 19.43516 -7.46502 -16.33788 -24.51827 12.66296 68.62080 -0.16155 -0.00255 0.00077 3.81003 -15.46422 -60.00377 -17.32911 -0.41120 9.28408 38.95081 23.06983 -49.07740 33.69934 -0.00307 0.00069 -61.75123 -63.07082 23.58513 
-855.18103 90.12651 -185.88962 2.94453 14.10836 165.87453 -7.83163 23.17301 -1.98996 -0.00298 0.00854 -0.00669 -1.00120 5.06836 6.20104 -0.60366 8.65528 -1.29567 -90.81198 -43.51685 -77.71891 -15.75084 35.16687 -86.31505 17.72622 7.56831 -11.85396 20.15206 8.47117 -3.92588 80.87092 -1.08188 69.31249 8.15488 30.28826 109.87012 17.69128 11.65497 4.26514 19.17343 -7.72360 -16.92787 -24.24887 12.85763 69.17693 -0.75026 -0.00188 -0.00038 4.47556 -14.85908 -59.48309 -17.47915 -0.38134 9.38507 38.98320 22.87100 -49.00915 35.54205 -0.00143 0.00051 -63.84381 -63.18235 23.25942 
-855.20880 90.15485 -186.08002 2.91715 13.93461 165.85327 -7.71881 23.09683 -2.08418 -0.00283 0.00811 -0.00688 -0.75149 4.99919 6.18819 -0.83061 8.60427 -1.58967 -90.51707 -43.92279 -77.62868 -15.95084 35.10579 -86.13041 17.69022 7.53375 -12.00233 19.81375 8.33615 -4.15745 81.05424 -0.85033 69.44032 8.16159 30.29896 109.79115 17.80968 11.66319 4.19247 19.04787 -8.06702 -17.42554 -24.29360 13.24149 69.88898 -1.36796 -0.00101 -0.00148 5.05235 -14.63466 -59.04103 -17.63743 -0.30689 9.50813 39.02179 22.70443 -48.95844 37.36697 0.00000 0.00029 -65.89194 -63.32877 22.91362 
-855.24493 90.15036 -186.34781 2.90610 13.77870 165.78075 -7.63915 23.05631 -2.18480 -0.00236 0.00773 -0.00679 -0.50540 4.89484 6.24631 -1.00854 8.54186 -1.82103 -90.18989 -44.35942 -77.50527 -16.18232 35.04496 -85.95895 17.67090 7.50913 -12.15508 19.53198 8.21039 -4.33792 81.21554 -0.68365 69.57431 8.19027 30.35609 109.73544 17.86158 11.63580 4.13064 19.04554 -8.48684 -17.82654 -24.61861 13.77779 70.73766 -1.99871 -0.00007 -0.00237 5.49132 -14.83362 -58.72419 -17.80593 -0.19115 9.64735 39.07121 22.57839 -48.92382 39.17635 0.00128 0.00011 -67.86183 -63.51124 22.59054 
-855.29144 90.10049 -186.68770 2.91320 13.64367 165.66399 -7.57634 23.04913 -2.29602 -0.00159 0.00741 -0.00641 -0.26966 4.76304 6.36786 -1.12186 8.46783 -1.97295 -89.85643 -44.80688 -77.35385 -16.45220 34.99241 -85.79391 17.65306 7.49854 -12.30323 19.34270 8.09432 -4.45841 81.32299 -0.58427 69.69805 8.23363 30.44982 109.70472 17.83751 11.59266 4.09234 19.15720 -8.96444 -18.13677 -25.18556 14.41321 71.69390 -2.62314 0.00073 -0.00289 5.74676 -15.42442 -58.56611 -17.98677 -0.04044 9.79741 39.14197 22.50647 -48.90942 40.97723 0.00250 0.00006 -69.75164 -63.74009 22.30785 
-855.35077 89.99258 -187.09558 2.94148 13.53269 165.50977 -7.50908 23.07242 -2.42071 -0.00059 0.00713 -0.00580 -0.04996 4.61100 6.54429 -1.16205 8.38061 -2.03768 -89.53296 -45.25016 -77.17789 -16.76403 34.95088 -85.63199 17.64065 7.50514 -12.45660 19.26231 7.98561 -4.51701 81.36237 -0.54249 69.79555 8.28033 30.56212 109.70096 17.75155 11.54003 4.08241 19.37708 -9.47268 -18.37203 -25.95324 15.08268 72.71702 -3.22066 0.00121 -0.00297 5.78829 -16.31944 -58.58115 -18.18308 0.13747 9.95474 39.24966 22.50506 -48.92455 42.78092 0.00374 0.00013 -71.62184 -64.03377 22.02551 
-855.42615 89.81673 -187.56873 2.99455 13.44879 165.32365 -7.41431 23.12268 -2.56028 0.00050 0.00687 -0.00507 0.14850 4.44672 6.76644 -1.12969 8.27813 -2.01931 -89.22453 -45.68249 -76.97876 -17.11223 34.91745 -85.47680 17.62195 7.53877 -12.60995 19.28577 7.88141 -4.51205 81.33962 -0.54685 69.85333 8.31966 30.67579 109.72189 17.62497 11.48556 4.10026 19.70167 -9.97993 -18.55584 -26.88047 15.71897 73.75549 -3.77363 0.00120 -0.00266 5.61898 -17.39605 -58.75014 -18.39931 0.33480 10.11778 39.41269 22.59022 -48.98264 44.60223 0.00513 0.00030 -73.57304 -64.41873 21.66624 
-855.52112 89.56876 -188.10605 3.07626 13.39413 165.10901 -7.27015 23.19561 -2.71434 0.00153 0.00665 -0.00432 0.32110 4.27916 7.02494 -1.03286 8.15967 -1.93165 -88.93150 -46.10717 -76.76021 -17.48651 34.88891 -85.33576 17.60201 7.59414 -12.76502 19.39390 7.77969 -4.44223 81.27318 -0.58660 69.86383 8.34504 30.78042 109.75826 17.48205 11.42704 4.14251 20.12543 -10.46311 -18.71521 -27.93068 16.28555 74.75054 -4.28547 0.00069 -0.00214 5.27886 -18.51412 -59.00720 -18.64054 0.54471 10.28667 39.64882 22.77583 -49.09734 46.45896 0.00678 0.00048 -75.67192 -64.91441 21.17998 
-855.64459 89.23213 -188.73651 3.19672 13.37533 164.85559 -7.05754 23.28958 -2.86986 0.00235 0.00649 -0.00364 0.46311 4.11942 7.31115 -0.89348 8.03056 -1.79371 -88.65228 -46.53833 -76.53101 -17.88003 34.87114 -85.21323 17.58735 7.65471 -12.90862 19.55354 7.68269 -4.31377 81.19000 -0.64709 69.82738 8.35299 30.87575 109.79549 17.35110 11.37099 4.19505 20.69865 -11.05906 -18.85836 -28.46131 16.19354 75.34052 -4.62250 0.00127 -0.00669 5.20889 -18.69187 -59.14478 -18.91671 0.77668 10.47451 39.97915 23.08034 -49.27023 48.38280 0.00888 0.00082 -77.92179 -65.53051 20.56761 
-855.80402 88.78463 -189.47336 3.36008 13.39224 164.56636 -6.75518 23.39645 -3.02969 0.00320 0.00639 -0.00298 0.56994 3.97711 7.61757 -0.70826 7.89080 -1.61967 -88.41151 -46.99174 -76.30074 -18.29503 34.88346 -85.10902 17.56952 7.73313 -13.06218 19.75722 7.58813 -4.12900 81.09318 -0.72163 69.74599 8.34111 30.96640 109.82124 17.20705 11.32339 4.27730 21.36518 -11.63248 -19.02533 -29.19956 16.21153 75.86360 -5.01403 -0.00205 0.00164 5.07577 -18.78783 -59.15902 -19.24206 1.02523 10.67966 40.42811 23.53516 -49.50599 50.41280 0.01164 0.00130 -80.29396 -66.26675 19.86588 
-856.02264 88.13203 -190.35826 3.59672 13.44061 164.22516 -6.29044 23.49799 -3.18957 0.00595 0.00581 -0.00187 0.62814 3.86155 7.93630 -0.33450 7.69586 -1.38191 -88.31727 -47.44365 -76.05338 -18.74365 34.95779 -85.02623 17.46109 7.96175 -13.33562 20.14552 7.45825 -3.84755 80.86394 -0.85347 69.58691 8.30963 31.05057 109.84530 16.88194 11.30219 4.52513 22.15997 -12.34136 -19.22297 -29.32295 15.74386 75.83027 -5.31175 -0.00216 -0.00873 5.38292 -17.70785 -58.62006 -19.62813 1.28213 10.90743 41.05230 24.19559 -49.80686 52.60580 0.01566 0.00234 -82.82409 -67.14400 19.07341 
-856.29004 87.29756 -191.39905 3.92503 13.51017 163.82321 -5.36790 23.19162 -3.47152 0.00513 0.00912 -0.00055 0.38323 4.14418 8.28481 -0.11809 7.81416 -1.10263 -88.30545 -47.96515 -75.81989 -19.24042 35.12234 -84.95078 17.43433 8.10271 -13.54622 20.38031 7.63702 -3.58703 80.60907 -1.00366 69.36805 8.24899 31.12699 109.85841 16.67967 11.31986 4.73751 22.95451 -13.12719 -19.49753 -26.80827 14.70785 71.24547 -11.17770 -0.28824 0.06577 12.11857 -13.38990 -54.17389 -20.08213 1.53627 11.15899 41.90054 25.10774 -50.17453 55.02323 0.02151 0.00394 -85.61574 -68.20300 18.12657 
-856.60339 86.29610 -192.57645 4.35977 13.57428 163.36697 -3.99692 22.53997 -3.85755 0.00311 0.01241 0.00054 -0.12688 4.73987 8.65828 -0.09490 8.17918 -0.82616 -88.34923 -48.59408 -75.63846 -19.79812 35.39167 -84.85853 17.40673 8.24773 -13.76494 20.40087 8.05172 -3.36817 80.40839 -1.12480 69.13499 8.15518 31.19309 109.84233 16.48996 11.36488 4.97759 23.72746 -14.70890 -20.78265 -24.44136 14.40120 67.27760 -9.01442 0.11812 -0.00801 9.88758 -9.15698 -48.82442 -20.59256 1.75761 11.41881 43.01165 26.29479 -50.61691 57.71032 0.02935 0.00567 -88.82389 -69.45969 16.91845 
-856.96179 85.17547 -193.82242 4.88976 13.59188 162.89824 -2.22150 21.58485 -4.35570 0.00016 0.01559 0.00132 -0.84848 5.56473 9.05985 -0.28100 8.73585 -0.59643 -88.42494 -49.35860 -75.54131 -20.42078 35.75597 -84.71677 17.45563 8.27472 -13.90364 20.17418 8.64405 -3.19713 80.31432 -1.18453 68.93923 8.02495 31.24756 109.77215 16.46283 11.43246 5.13078 24.18085 -16.66896 -23.08141 -24.85597 15.77200 66.45895 -12.11388 -0.09650 0.03704 11.68106 -7.25520 -45.03180 -21.13259 1.86216 11.63761 44.41768 27.75083 -51.18133 60.67011 0.03816 0.00672 -92.59211 -70.88844 15.35594 
-857.36444 84.02518 -195.11179 5.49098 13.54237 162.42784 -0.13447 20.37574 -4.93260 -0.00334 0.01883 0.00196 -1.72181 6.54352 9.49641 -0.68060 9.43892 -0.44333 -88.50268 -50.26509 -75.54383 -21.09591 36.19385 -84.49979 17.50857 8.26108 -14.02887 19.70499 9.36974 -3.06850 80.34197 -1.16591 68.82371 7.85597 31.28840 109.62721 16.49199 11.51019 5.25047 24.44112 -18.23424 -25.36379 -25.97412 17.67788 66.71549 -13.61650 -0.05997 0.00389 11.23020 -6.81444 -42.02732 -21.72506 1.76929 11.80348 46.28340 29.48430 -51.97470 63.74377 0.04698 0.00664 -97.08138 -72.50999 13.20180 
-857.80457 82.92400 -196.44608 6.13733 13.41707 161.95570 2.15809 18.96321 -5.54481 -0.00685 0.02207 0.00257 -2.68808 7.61478 9.97485 -1.28247 10.25058 -0.37145 -88.55032 -51.29428 -75.63828 -21.79394 36.68152 -84.19918 17.60058 8.16708 -14.11223 19.03604 10.19532 -2.97142 80.47314 -1.06608 68.80975 7.64376 31.31857 109.40090 16.62136 11.59708 5.29610 24.46920 -19.48350 -27.62883 -25.81314 19.22815 66.59084 -23.36502 -0.34628 -0.08353 18.62786 -5.33498 -39.20901 -22.35247 1.50034 11.91926 48.45126 31.37658 -52.93533 66.90948 0.05277 0.00384 -102.17358 -74.16614 10.55250 
-858.27533 81.90407 -197.82108 6.80086 13.21685 161.48250 4.32206 17.79015 -6.04392 -0.00697 0.02114 0.00253 -3.42326 8.36462 10.43388 -1.77755 10.77536 -0.39868 -88.55255 -52.39192 -75.79884 -22.47716 37.20134 -83.83494 17.69278 8.06643 -14.20927 18.48554 10.73467 -2.84092 80.65807 -0.88608 68.88396 7.39112 31.34577 109.12831 16.75911 11.68478 5.32801 24.22827 -20.47170 -29.87224 -24.72662 20.61333 67.17244 -22.63302 -0.13818 -0.02984 15.24058 -3.91470 -37.34487 -22.98066 1.12109 11.99201 50.72935 33.31964 -53.96852 70.16575 0.05512 -0.00010 -107.67427 -75.72378 7.56409 
